Coordinates
version=1
nRows=24
nColumns=38
inDegrees=no

Units are S.I. units (second, meters, Newtons, ...)
If the header above contains a line with 'inDegrees', this indicates whether rotational values are in degrees (yes) or radians (no).

endheader
time	pelvis_tilt	pelvis_list	pelvis_rotation	pelvis_tx	pelvis_ty	pelvis_tz	hip_flexion_r	hip_adduction_r	hip_rotation_r	knee_angle_r	ankle_angle_r	subtalar_angle_r	mtp_angle_r	hip_flexion_l	hip_adduction_l	hip_rotation_l	knee_angle_l	ankle_angle_l	subtalar_angle_l	mtp_angle_l	lumbar_extension	lumbar_bending	lumbar_rotation	arm_flex_r	arm_add_r	arm_rot_r	elbow_flex_r	pro_sup_r	wrist_flex_r	wrist_dev_r	arm_flex_l	arm_add_l	arm_rot_l	elbow_flex_l	pro_sup_l	wrist_flex_l	wrist_dev_l
21.3	-3.00791	1.30896	-1.53619	0.680625	-0.210002	0.961424	-0.333267	0.0269829	0.00849354	0.0892042	-0.312456	0	0	-0.126063	-0.0653549	0.00237822	0.409575	-0.236473	0	0	-0.403823	-0.0546413	0.155545	0.571491	-0.373911	0.376803	1.50494	1.5708	0	0	0.867197	-0.181919	0.581783	0.978004	1.5708	0	0
21.31	-3.00738	1.30918	-1.53644	0.681016	-0.209778	0.961507	-0.333046	0.0277014	0.00982955	0.0899482	-0.311944	0	0	-0.124372	-0.0666774	0.00511661	0.420728	-0.230885	0	0	-0.402258	-0.0538316	0.15466	0.574369	-0.3748	0.382406	1.50441	1.5708	0	0	0.865946	-0.181719	0.579756	0.975462	1.5708	0	0
21.32	-3.00897	1.30942	-1.53504	0.681376	-0.209405	0.96146	-0.333347	0.0289831	0.0116074	0.0899671	-0.311089	0	0	-0.124217	-0.0684252	0.00680792	0.430823	-0.225127	0	0	-0.399958	-0.0526014	0.15455	0.576297	-0.376189	0.387237	1.50456	1.5708	0	0	0.863676	-0.18138	0.577675	0.973651	1.5708	0	0
21.33	-3.01182	1.30965	-1.53268	0.681698	-0.208843	0.96133	-0.334179	0.030482	0.0126814	0.0893583	-0.310205	0	0	-0.126084	-0.0703811	0.00744237	0.438587	-0.220782	0	0	-0.397018	-0.051265	0.155	0.576619	-0.377742	0.390656	1.5055	1.5708	0	0	0.860246	-0.180944	0.575284	0.972771	1.5708	0	0
21.34	-3.01642	1.30967	-1.52891	0.681935	-0.208122	0.961124	-0.33563	0.0321457	0.0130989	0.088093	-0.30944	0	0	-0.129782	-0.0726304	0.00713937	0.444897	-0.21738	0	0	-0.393518	-0.0494008	0.155998	0.575705	-0.379817	0.393487	1.50725	1.5708	0	0	0.855493	-0.180325	0.572213	0.972772	1.5708	0	0
21.35	-3.0242	1.30932	-1.52251	0.682096	-0.207251	0.960851	-0.33782	0.0343003	0.0134755	0.0859169	-0.308875	0	0	-0.135285	-0.0758428	0.00510061	0.449708	-0.213414	0	0	-0.389893	-0.0467797	0.157543	0.574258	-0.382747	0.396595	1.5095	1.5708	0	0	0.847987	-0.180104	0.565997	0.976004	1.5708	0	0
21.36	-3.03387	1.30852	-1.51471	0.682211	-0.206302	0.960556	-0.340532	0.0366639	0.014254	0.0833405	-0.308964	0	0	-0.142798	-0.0795712	0.00199858	0.451174	-0.209217	0	0	-0.386677	-0.04366	0.158759	0.573088	-0.385601	0.400265	1.51149	1.5708	0	0	0.837113	-0.180123	0.55441	0.983385	1.5708	0	0
21.37	-3.04492	1.3073	-1.50561	0.682263	-0.205303	0.960248	-0.343634	0.039343	0.0149546	0.0807531	-0.309434	0	0	-0.152276	-0.0834881	-0.00113236	0.448461	-0.204711	0	0	-0.383798	-0.0399465	0.159002	0.572671	-0.388309	0.404983	1.51286	1.5708	0	0	0.822621	-0.180035	0.536847	0.99475	1.5708	0	0
21.38	-3.05762	1.30643	-1.49484	0.682184	-0.204191	0.959872	-0.346389	0.0422344	0.0151866	0.0783092	-0.310061	0	0	-0.162453	-0.0874987	-0.00471473	0.441219	-0.199916	0	0	-0.380244	-0.0356139	0.158772	0.571836	-0.391233	0.409653	1.51466	1.5708	0	0	0.805164	-0.180045	0.516115	1.00918	1.5708	0	0
21.39	-3.07062	1.30557	-1.48326	0.681981	-0.203007	0.959457	-0.349277	0.0452217	0.0148233	0.0759736	-0.310674	0	0	-0.17335	-0.0910885	-0.00769762	0.428788	-0.195703	0	0	-0.376813	-0.0311638	0.157433	0.570029	-0.393801	0.413167	1.51822	1.5708	0	0	0.784292	-0.181076	0.492207	1.02837	1.5708	0	0
21.4	-3.08338	1.30428	-1.47134	0.68166	-0.201827	0.959042	-0.352728	0.0483514	0.0142237	0.0739394	-0.310921	0	0	-0.184981	-0.0940649	-0.00933334	0.412244	-0.193786	0	0	-0.374301	-0.0264066	0.154226	0.568669	-0.395946	0.417244	1.52377	1.5708	0	0	0.759474	-0.183181	0.464163	1.05304	1.5708	0	0
21.41	-3.1142	1.32367	-1.44349	0.680713	-0.199768	0.957928	-0.332147	0.0520328	0.0205344	0.0767642	-0.310069	0	0	-0.173476	-0.0975239	-0.0092176	0.397207	-0.193349	0	0	-0.346455	-0.0207205	0.156686	0.554412	-0.401962	0.415884	1.53304	1.5708	0	0	0.71214	-0.154167	0.323086	1.12839	1.5708	0	0
21.42	-3.11167	1.30423	-1.44301	0.680509	-0.199325	0.957979	-0.356816	0.0551348	0.0120097	0.0712388	-0.308745	0	0	-0.202234	-0.100584	-0.0124801	0.383163	-0.190741	0	0	-0.367627	-0.0156034	0.139781	0.567992	-0.398534	0.429438	1.54101	1.5708	0	0	0.693958	-0.191971	0.394246	1.12024	1.5708	0	0
21.43	3.13938	1.32287	-1.41227	0.679224	-0.197334	0.956946	-0.337353	0.0588757	0.0168217	0.0733702	-0.308972	0	0	-0.189705	-0.104043	-0.0124565	0.371829	-0.189158	0	0	-0.338762	-0.0105331	0.149776	0.540293	-0.410912	0.411305	1.56253	1.5708	0	0	0.658636	-0.165021	0.289832	1.18822	1.5708	0	0
21.44	-3.14027	1.30452	-1.41161	0.678738	-0.196842	0.956885	-0.361492	0.0626248	0.00963962	0.0678055	-0.306548	0	0	-0.215885	-0.107559	-0.017588	0.36192	-0.185114	0	0	-0.358578	-0.00393867	0.131597	0.550739	-0.40734	0.41977	1.57633	1.5708	0	0	0.638738	-0.198947	0.357239	1.16973	1.5708	0	0
21.45	3.10719	1.32469	-1.3765	0.677217	-0.194784	0.955738	-0.340525	0.066427	0.0165724	0.0694698	-0.3062	0	0	-0.200708	-0.111074	-0.0192225	0.351946	-0.183596	0	0	-0.328675	0.000398488	0.13865	0.520948	-0.419014	0.396748	1.60288	1.5708	0	0	0.597627	-0.176761	0.253839	1.24897	1.5708	0	0
21.46	3.09435	1.3262	-1.36089	0.676047	-0.193591	0.955194	-0.341487	0.0692208	0.0173563	0.0669704	-0.305381	0	0	-0.204618	-0.113825	-0.0234578	0.343379	-0.181922	0	0	-0.322211	0.00508774	0.132975	0.509914	-0.425219	0.385517	1.62595	1.5708	0	0	0.569866	-0.183094	0.243265	1.27031	1.5708	0	0
21.47	3.08709	1.32797	-1.35059	0.674866	-0.192408	0.954829	-0.34233	0.0706829	0.0183358	0.0639943	-0.305075	0	0	-0.208602	-0.11502	-0.0266209	0.334096	-0.180783	0	0	-0.316975	0.00764343	0.126142	0.497207	-0.430727	0.370618	1.65375	1.5708	0	0	0.541467	-0.189574	0.232838	1.29122	1.5708	0	0
21.48	3.08636	1.32916	-1.34706	0.673742	-0.191315	0.954713	-0.343713	0.0706682	0.0201139	0.0614729	-0.305247	0	0	-0.213203	-0.114695	-0.0290464	0.325684	-0.18072	0	0	-0.312472	0.00852218	0.1191	0.484715	-0.436271	0.355392	1.68302	1.5708	0	0	0.514395	-0.196186	0.224555	1.30616	1.5708	0	0
21.49	3.08967	1.33062	-1.34785	0.672669	-0.190208	0.954752	-0.344938	0.0697786	0.0221575	0.0593817	-0.305424	0	0	-0.218092	-0.113345	-0.0306016	0.316272	-0.181935	0	0	-0.30885	0.00793849	0.112031	0.47103	-0.441943	0.338288	1.71652	1.5708	0	0	0.487445	-0.203101	0.217673	1.31853	1.5708	0	0
21.5	3.09572	1.33235	-1.3515	0.67161	-0.189115	0.954884	-0.345807	0.0681784	0.0240506	0.0580023	-0.305468	0	0	-0.222944	-0.111391	-0.0307508	0.306032	-0.184477	0	0	-0.305422	0.00662937	0.105149	0.456668	-0.447401	0.3198	1.75197	1.5708	0	0	0.460988	-0.210407	0.21283	1.32722	1.5708	0	0
21.51	3.1021	1.33465	-1.35582	0.670609	-0.188049	0.955033	-0.345657	0.0662749	0.0257534	0.0576263	-0.305207	0	0	-0.227074	-0.109333	-0.0293965	0.295546	-0.187888	0	0	-0.301608	0.00512968	0.0986373	0.441911	-0.452684	0.299743	1.78924	1.5708	0	0	0.4344	-0.218395	0.210264	1.33414	1.5708	0	0
21.52	3.10716	1.33776	-1.35909	0.66963	-0.186969	0.955141	-0.344153	0.0644022	0.0268577	0.0582178	-0.304432	0	0	-0.229914	-0.107384	-0.0266569	0.285452	-0.191853	0	0	-0.297117	0.00346413	0.0925741	0.426297	-0.457862	0.277607	1.82857	1.5708	0	0	0.407592	-0.227219	0.211257	1.34219	1.5708	0	0
21.53	3.1088	1.34162	-1.3593	0.66861	-0.185859	0.955171	-0.341322	0.0629029	0.0271606	0.059412	-0.303491	0	0	-0.231121	-0.105804	-0.0230479	0.276956	-0.195323	0	0	-0.292223	0.00257907	0.0855598	0.412167	-0.462142	0.25635	1.86864	1.5708	0	0	0.379676	-0.236851	0.212779	1.35128	1.5708	0	0
